<?xml version="1.0" standalone="no"?>
<!DOCTYPE svg PUBLIC "-//W3C//DTD SVG 20010904//EN"
 "http://www.w3.org/TR/2001/REC-SVG-20010904/DTD/svg10.dtd">
<svg version="1.0" xmlns="http://www.w3.org/2000/svg"
 width="1732.000000pt" height="1532.000000pt" viewBox="0 0 1732.000000 1532.000000"
 preserveAspectRatio="xMidYMid meet">
<metadata>
Created by potrace 1.16, written by Peter Selinger 2001-2019
</metadata>
<g transform="translate(0.000000,1532.000000) scale(0.100000,-0.100000)"
fill="#000000" stroke="none">
<path d="M10788 15160 c-46 -30 -105 -89 -143 -143 l-21 -28 -164 26 c-183 30
-254 29 -316 -3 -109 -56 -164 -189 -144 -348 18 -143 78 -348 145 -500 l25
-56 -40 -116 c-52 -156 -58 -218 -30 -302 24 -73 102 -218 191 -356 l59 -91 0
-109 c1 -65 6 -124 14 -147 31 -87 106 -173 580 -676 203 -214 242 -251 251
-237 11 14 14 13 33 -7 45 -47 11 -75 -39 -32 -18 14 -37 24 -44 21 -7 -2 -15
4 -18 15 -5 18 -3 18 11 7 15 -12 16 -11 3 5 -13 17 -16 16 -41 -10 -23 -23
-27 -36 -25 -70 2 -39 -8 -53 -37 -49 -3 1 -18 -10 -31 -23 -14 -12 -30 -20
-36 -16 -16 9 -13 25 4 25 8 0 15 5 15 10 0 6 6 10 14 10 7 0 19 7 26 15 7 8
17 12 24 8 6 -3 8 -3 4 2 -4 4 -3 15 2 25 7 13 4 22 -11 36 -19 17 -20 17 -13
0 5 -14 3 -17 -7 -14 -8 3 -21 -1 -30 -8 -17 -15 -18 -11 -20 39 0 15 -3 15
-20 -5 l-20 -23 6 30 c4 16 12 33 18 37 6 4 8 10 5 13 -4 4 -12 -2 -19 -13
-10 -16 -17 -18 -31 -11 -10 6 -23 7 -28 4 -6 -3 -10 -4 -10 -1 0 3 10 10 21
17 15 8 19 8 15 0 -4 -6 -2 -11 4 -11 7 0 9 18 6 50 -3 27 -1 52 5 55 5 4 7
11 4 16 -3 5 0 6 7 4 8 -3 22 2 33 10 20 16 20 16 0 7 -11 -6 -35 -9 -53 -7
-24 2 -37 -3 -51 -21 -10 -13 -21 -20 -25 -17 -3 3 -6 1 -6 -6 0 -7 -4 -10 -8
-7 -4 2 -8 -4 -8 -15 0 -10 4 -19 8 -19 4 0 4 -7 1 -17 -5 -12 -3 -14 8 -9 8
4 3 -2 -11 -13 -15 -13 -21 -24 -15 -28 17 -13 15 -31 -3 -29 -11 1 -18 -8
-20 -22 -3 -21 -1 -22 17 -13 28 16 37 14 37 -8 0 -12 -5 -17 -15 -13 -9 3
-12 1 -7 -6 3 -6 -3 -13 -14 -17 -11 -3 -20 -11 -20 -16 0 -5 -8 -9 -18 -9
-10 0 -27 -6 -38 -14 -18 -14 -18 -15 -1 -21 23 -10 22 -34 -2 -32 -11 0 -17
5 -15 9 3 5 11 5 17 2 8 -5 9 -4 2 4 -19 20 -38 18 -40 -5 -1 -12 1 -22 4 -21
17 2 31 -3 31 -10 0 -10 -46 -10 -56 0 -4 4 -13 3 -21 -3 -10 -9 -13 -8 -13 4
0 8 6 18 13 20 9 4 9 6 -1 6 -8 1 -41 -26 -73 -60 -33 -33 -50 -55 -37 -48 13
7 27 12 31 11 5 -1 6 2 2 7 -3 6 4 15 15 21 14 8 20 8 20 0 0 -6 5 -8 10 -5 6
3 10 11 10 16 0 6 -4 7 -10 4 -5 -3 -10 1 -10 9 0 20 5 20 24 0 9 -8 16 -11
16 -5 0 6 7 11 15 11 24 0 6 -27 -32 -50 -20 -11 -33 -24 -29 -27 7 -7 -35
-39 -46 -35 -5 1 -8 -6 -8 -15 0 -9 -3 -13 -7 -10 -3 4 -11 -3 -18 -16 -6 -12
-16 -21 -21 -21 -5 1 -20 -12 -34 -29 -14 -17 -18 -27 -10 -22 9 5 8 0 -4 -13
-10 -12 -21 -20 -25 -18 -3 2 -15 -3 -26 -11 -19 -15 -19 -15 -1 -9 16 5 17 4
6 -9 -7 -8 -17 -12 -23 -8 -5 3 -7 2 -4 -4 4 -5 -2 -19 -13 -30 -10 -12 -16
-24 -12 -29 4 -4 -2 -4 -12 0 -15 5 -17 4 -8 -7 9 -10 8 -17 0 -25 -7 -7 -8
-12 -3 -12 5 0 -1 -7 -13 -16 -12 -8 -20 -19 -17 -24 3 -5 1 -11 -5 -15 -5 -3
-10 -11 -10 -17 0 -7 6 -6 15 2 10 8 15 9 15 1 0 -6 -9 -16 -20 -23 -11 -7
-20 -23 -20 -36 0 -13 -4 -20 -10 -17 -6 3 -7 -1 -4 -9 3 -9 1 -16 -5 -16 -11
0 -71 -58 -71 -69 0 -3 -9 -12 -21 -19 -12 -8 -18 -9 -14 -3 3 6 1 11 -5 11
-6 0 -8 5 -5 10 3 6 0 10 -7 10 -11 0 -11 2 0 9 7 4 12 12 11 17 -1 5 1 18 5
29 5 11 10 27 14 35 3 8 4 19 3 23 -1 5 2 6 6 4 5 -3 17 1 28 9 10 8 15 14 11
14 -4 0 -1 7 6 15 34 37 35 41 22 52 -6 7 -16 9 -20 5 -5 -4 -1 3 10 15 10 12
15 27 11 32 -3 6 -2 11 2 11 5 0 9 8 10 18 2 46 8 70 15 66 4 -3 4 -12 1 -22
-4 -12 0 -11 14 6 11 12 25 22 32 22 6 0 11 5 11 10 0 7 -6 7 -20 0 -16 -8
-20 -8 -20 4 0 8 4 17 9 21 5 3 12 19 16 35 4 17 11 30 16 30 5 0 8 3 8 8 -1
4 -1 12 0 17 1 14 51 70 51 59 0 -5 6 0 12 10 12 22 17 87 6 79 -17 -10 -6 6
27 43 19 22 35 43 35 47 0 5 4 6 9 3 11 -7 36 22 27 31 -3 3 -6 1 -6 -5 0 -7
-4 -12 -10 -12 -13 0 -13 27 0 32 16 5 179 142 179 151 1 5 -3 5 -9 2 -15 -9
-12 0 9 39 15 26 17 36 8 45 -9 9 -7 10 8 5 18 -7 19 -6 6 10 -13 15 -13 19 0
27 9 6 18 4 25 -5 8 -12 12 -11 22 5 14 22 38 25 45 7 3 -8 6 -5 6 6 1 11 6
16 15 13 8 -3 16 -1 18 5 3 7 10 8 17 4 11 -7 11 -10 0 -17 -11 -7 -10 -9 4
-9 10 0 17 7 17 18 0 14 2 15 10 2 7 -10 10 -11 10 -2 0 8 9 11 27 8 l27 -5
-21 21 -22 21 -55 -21 c-41 -16 -57 -18 -62 -9 -4 7 -4 9 0 5 5 -4 18 2 29 13
13 12 23 15 25 9 3 -8 8 -7 18 1 17 14 19 33 2 23 -10 -6 -10 -5 -1 8 16 19 6
30 -17 18 -13 -7 -20 -6 -24 6 -4 10 -2 13 7 8 9 -6 8 -3 -1 8 -15 19 -60 17
-73 -3 -7 -12 -9 -12 -9 0 0 11 -3 11 -16 0 -9 -8 -24 -14 -33 -14 -9 0 -15
-6 -13 -14 2 -8 0 -27 -4 -43 -4 -22 -9 -27 -17 -19 -9 9 -8 17 1 31 16 26 15
33 -3 27 -8 -4 -17 -1 -21 5 -4 7 -3 8 4 4 7 -4 12 -2 12 3 0 6 6 11 14 11 21
0 31 21 15 31 -8 5 -18 9 -24 9 -5 0 -4 -4 3 -9 11 -7 11 -9 -1 -14 -19 -7
-28 24 -14 49 10 17 9 18 -7 5 -9 -8 -14 -21 -12 -28 4 -11 0 -13 -17 -9 -12
3 -16 3 -9 0 19 -9 14 -27 -5 -20 -15 5 -14 3 2 -10 l20 -17 -20 8 c-11 5 -31
8 -45 9 -21 1 -26 -4 -30 -34 -3 -22 -11 -35 -20 -35 -8 0 -21 -4 -27 -8 -7
-5 -16 -6 -21 -3 -4 2 -16 -2 -27 -10 -19 -14 -19 -14 1 -14 15 0 16 -2 4 -10
-9 -6 -17 -5 -22 3 -13 20 38 49 85 48 15 0 17 8 14 45 -2 24 1 44 5 44 5 0 7
4 3 9 -3 6 3 14 12 20 17 10 17 10 1 11 -23 0 -36 -27 -33 -68 3 -34 -8 -51
-21 -31 -5 8 -3 9 6 4 9 -5 11 -4 6 4 -5 8 -12 9 -20 2 -6 -5 -27 -8 -46 -6
-31 4 -32 4 -11 -5 20 -9 21 -12 10 -26 -8 -10 -15 -12 -17 -5 -9 26 -49 -1
-80 -55 -7 -12 -12 -14 -12 -5 0 11 -3 11 -15 1 -13 -11 -14 -10 -9 4 4 10 12
15 19 12 8 -3 11 2 8 15 -6 22 -19 25 -26 5 -4 -9 -14 -12 -26 -9 -14 4 -21 1
-21 -10 0 -8 -7 -18 -16 -21 -26 -10 -28 -7 -11 12 15 16 15 19 2 19 -8 0 -15
-3 -15 -7 0 -4 -15 -7 -34 -7 -26 0 -33 4 -28 15 4 12 1 14 -14 7 -10 -5 -34
-9 -52 -9 -20 0 -28 -3 -20 -8 10 -6 8 -8 -4 -8 -20 0 -24 -15 -6 -26 6 -4 8
-3 5 3 -4 6 0 14 9 17 11 4 14 1 12 -12 -2 -10 -12 -16 -24 -15 -12 1 -25 -9
-35 -26 -18 -31 -66 -38 -61 -9 2 11 -4 14 -22 11 -17 -4 -23 -10 -19 -20 3
-8 0 -19 -8 -25 -10 -7 -8 -8 9 -5 12 3 20 1 16 -4 -3 -5 0 -9 5 -9 6 0 11 -5
11 -11 0 -8 -4 -8 -13 -1 -10 9 -19 7 -35 -4 -12 -8 -20 -19 -17 -24 3 -5 -1
-15 -9 -22 -8 -8 -15 -23 -18 -33 -2 -13 -11 -19 -28 -19 -14 0 -29 -6 -33
-13 -4 -7 -17 -13 -27 -13 -11 0 -20 -4 -20 -10 0 -5 7 -7 15 -4 11 5 13 2 9
-10 -5 -12 -10 -13 -25 -5 -13 6 -19 6 -19 -1 0 -5 -7 -10 -16 -10 -9 0 -14
-6 -12 -12 3 -7 -7 -19 -21 -26 -21 -11 -27 -11 -36 1 -8 12 -12 12 -23 1 -7
-8 -8 -15 -2 -19 6 -3 10 -1 10 6 0 8 4 8 15 -1 18 -15 9 -28 -37 -62 l-30
-21 4 23 c2 15 -3 24 -13 25 -13 2 -16 -5 -15 -38 1 -31 -3 -42 -14 -43 -9 0
-10 1 -2 3 13 5 17 23 4 23 -5 0 -22 -7 -39 -15 -16 -8 -46 -17 -66 -19 -30
-4 -35 -3 -25 8 7 8 20 11 28 8 20 -7 10 2 -16 16 -18 9 -25 8 -35 -6 -13 -15
-12 -16 4 -3 10 8 17 9 17 3 0 -6 -5 -14 -10 -17 -6 -4 -8 -10 -5 -15 3 -5 -5
-12 -19 -16 -14 -3 -24 -11 -23 -17 1 -6 -7 -12 -18 -14 -17 -3 -17 -2 -5 7
12 8 9 10 -15 8 -20 -2 -31 -9 -33 -22 -3 -15 0 -17 14 -12 15 6 16 5 7 -5
-10 -10 -15 -9 -28 1 -19 16 -19 25 1 44 8 9 12 16 7 16 -11 0 -35 -16 -35
-23 0 -26 -15 -50 -35 -58 -38 -14 -46 -11 -39 17 6 23 5 24 -13 14 -16 -8
-22 -7 -29 6 -8 15 -10 15 -15 0 -4 -10 -13 -13 -24 -10 -15 5 -16 4 -3 -5 13
-9 12 -11 -5 -12 -11 0 -14 -3 -7 -6 6 -2 10 -9 6 -14 -3 -5 0 -9 5 -9 6 0 11
7 11 15 0 9 9 15 23 15 18 0 19 -2 7 -10 -12 -8 -10 -10 9 -10 25 0 25 0 5
-18 -11 -10 -33 -22 -49 -25 l-30 -7 25 15 c16 9 20 15 10 16 -8 1 -27 3 -42
5 -15 1 -31 -2 -34 -8 -5 -7 -2 -8 7 -3 12 7 12 6 1 -7 -10 -13 -10 -17 0 -20
11 -4 10 -8 0 -21 -12 -14 -10 -15 13 -11 17 3 24 1 20 -6 -8 -13 -52 -13 -60
1 -5 7 -14 4 -28 -8 l-22 -18 19 23 c11 12 16 25 11 30 -4 4 -10 2 -12 -5 -2
-7 -11 -9 -19 -6 -13 5 -13 7 -2 15 10 8 10 9 -2 5 -8 -2 -15 -9 -15 -14 0 -6
-3 -15 -7 -19 -5 -4 -8 -18 -8 -30 0 -27 -11 -36 -29 -25 -10 7 -10 9 2 14 8
3 17 14 20 26 4 17 1 20 -22 17 -14 -2 -20 -1 -13 1 8 3 11 11 8 19 -3 7 -1
16 5 19 5 4 8 12 7 19 -2 6 1 11 7 11 5 0 9 -2 9 -5 -1 -3 -5 -16 -9 -29 -4
-15 -3 -21 3 -17 13 8 21 55 10 62 -5 3 -3 13 4 22 7 10 0 6 -14 -7 -15 -13
-24 -29 -21 -37 3 -8 -4 -18 -18 -23 -19 -8 -20 -10 -6 -10 16 -1 15 -4 -6
-23 -13 -13 -23 -30 -22 -39 2 -9 -3 -16 -10 -16 -7 0 -11 6 -8 14 3 7 0 20
-7 28 -10 12 -9 15 9 15 21 0 28 14 12 25 -5 3 -17 -3 -27 -12 -9 -10 -26 -17
-38 -18 -12 0 -26 -11 -34 -27 -7 -16 -21 -28 -30 -27 -14 0 -14 2 2 8 14 5
16 10 8 15 -7 4 -16 5 -21 1 -5 -3 -16 1 -24 10 -13 13 -16 13 -21 0 -3 -9 0
-15 8 -15 8 0 16 -7 20 -15 5 -14 -6 -20 -28 -16 -5 1 -4 -5 4 -13 7 -9 9 -16
6 -16 -4 0 -2 -9 4 -20 7 -13 7 -20 1 -20 -14 0 -32 36 -23 45 4 5 -1 5 -11 2
-10 -4 -21 -7 -24 -7 -3 0 1 -8 8 -17 12 -15 12 -16 -3 -10 -15 5 -16 2 -8
-18 8 -20 6 -25 -6 -25 -9 0 -12 5 -8 12 5 8 2 9 -10 5 -10 -4 -19 -7 -22 -7
-2 0 -1 -7 2 -15 4 -8 1 -15 -5 -15 -6 0 -11 8 -11 18 0 25 -11 34 -26 22 -6
-6 -18 -9 -25 -8 -7 2 -14 -6 -16 -17 -3 -20 -3 -20 5 0 8 18 9 17 14 -8 4
-20 2 -27 -7 -23 -8 3 -12 -2 -11 -12 2 -10 12 -17 24 -17 12 0 21 -5 19 -10
-1 -6 -11 -9 -22 -7 -15 1 -16 0 -6 -7 10 -7 11 -9 1 -13 -11 -3 -11 -8 -1
-24 9 -13 11 -14 7 -2 -5 18 16 30 39 21 21 -7 14 -26 -13 -38 -33 -15 -27
-21 17 -19 31 1 40 -2 44 -17 3 -10 1 -19 -4 -19 -5 0 -9 5 -9 10 0 15 -26 12
-43 -5 -8 -8 -16 -12 -19 -10 -2 2 -5 -7 -6 -19 -1 -19 2 -23 18 -19 10 3 17
10 16 16 -2 7 -1 9 1 4 3 -4 8 -5 13 -2 4 3 6 -5 2 -17 -5 -21 -4 -22 14 -8
18 14 18 14 4 -5 -8 -11 -19 -23 -25 -27 -6 -5 -6 -8 2 -8 6 0 25 17 42 38 25
30 30 33 28 15 -2 -11 -24 -42 -50 -67 -41 -41 -43 -46 -22 -42 25 5 34 -7 15
-19 -5 -3 -10 -1 -10 6 0 8 -3 9 -13 0 -20 -16 -52 20 -35 37 7 7 18 12 26 12
8 0 12 6 9 15 -4 8 -2 17 4 20 14 9 1 25 -15 19 -8 -3 -13 -13 -11 -22 1 -9 0
-11 -2 -4 -3 6 -9 12 -15 12 -13 0 -58 -47 -58 -61 0 -5 -5 -9 -11 -9 -7 0 -5
10 5 25 10 15 12 25 5 25 -6 0 -13 -9 -16 -20 -3 -11 -9 -20 -12 -20 -4 0 -8
-6 -8 -14 0 -17 20 -11 62 18 22 15 26 16 17 4 -8 -10 -12 -21 -9 -25 3 -4
-15 -18 -39 -30 -30 -16 -45 -19 -50 -11 -4 6 -3 8 4 4 6 -3 13 -3 16 2 3 5
-2 9 -10 9 -9 0 -20 -11 -25 -24 -5 -12 -11 -23 -14 -23 -4 0 -3 5 0 11 4 6
-2 5 -14 -3 -24 -14 -18 -24 22 -33 23 -6 26 -5 21 11 -4 13 -1 12 8 -4 8 -12
18 -19 23 -15 6 4 1 -3 -10 -16 l-20 -23 23 -16 23 -15 -27 -29 c-30 -31 -47
-37 -38 -13 4 8 10 13 14 10 4 -2 15 4 24 14 15 16 15 19 1 24 -8 4 -15 2 -15
-3 0 -6 -5 -10 -11 -10 -5 0 -7 5 -4 10 3 6 -2 10 -12 11 -10 0 -13 3 -5 6 6
2 12 11 12 19 0 11 -5 12 -17 6 -26 -13 -81 -25 -64 -14 8 6 9 12 3 16 -6 3
-14 -3 -17 -15 -4 -12 -14 -30 -24 -40 -9 -11 -17 -23 -17 -27 -8 -39 -18 -52
-43 -51 -23 2 -24 2 -3 6 27 5 29 20 2 28 -11 4 -18 10 -16 14 3 4 0 13 -6 21
-8 13 -9 12 -5 -1 3 -9 0 -22 -6 -29 -9 -10 -9 -11 0 -6 15 8 27 -10 12 -20
-9 -5 -7 -11 5 -20 12 -8 14 -14 6 -19 -6 -4 -21 1 -33 12 -14 12 -18 13 -9 2
6 -9 10 -18 7 -20 -13 -14 42 -6 57 8 21 19 24 8 4 -13 -8 -8 -22 -14 -31 -14
-11 0 -15 -5 -12 -14 4 -11 -1 -13 -19 -10 -13 2 -24 0 -24 -6 0 -6 5 -8 10
-5 6 3 10 1 10 -5 0 -6 5 -8 11 -4 6 3 15 0 20 -7 7 -11 9 -10 9 5 0 15 3 16
15 6 14 -12 14 -15 -1 -31 -9 -10 -22 -16 -28 -12 -6 3 -8 3 -4 -2 4 -4 3 -14
-4 -22 -9 -11 -7 -12 8 -7 14 4 13 1 -6 -15 -14 -11 -20 -21 -13 -21 15 0 54
50 47 61 -3 5 0 9 6 9 7 0 10 -7 6 -15 -3 -9 0 -15 9 -15 19 0 28 -17 14 -26
-8 -4 -9 -3 -5 4 12 20 -13 13 -34 -8 -11 -11 -16 -20 -12 -20 4 0 13 5 20 12
9 9 12 9 12 1 0 -7 -10 -19 -22 -27 -14 -10 -17 -16 -9 -16 8 0 23 8 34 18 11
9 17 12 14 6 -4 -7 0 -15 9 -18 8 -3 12 -2 9 3 -3 5 -1 12 4 15 5 3 7 15 4 26
-3 11 -1 20 4 20 6 0 9 -11 8 -25 -4 -28 12 -34 22 -9 3 9 17 28 31 43 14 14
22 20 18 14 -4 -7 2 -20 14 -30 11 -10 20 -22 20 -28 0 -5 -5 -3 -10 5 -5 8
-10 11 -10 6 0 -6 -7 -1 -16 10 -11 13 -14 14 -11 3 3 -8 -4 -21 -14 -27 -26
-16 -24 -27 7 -40 26 -12 25 -36 -1 -25 -18 6 -20 -8 -3 -25 10 -10 10 -17 1
-31 -11 -18 -10 -18 18 -4 29 14 39 33 18 33 -5 0 -7 -4 -4 -10 3 -5 1 -10 -4
-10 -13 0 -15 37 -2 44 10 7 9 25 -1 42 -4 6 -1 11 6 11 12 0 16 -11 17 -52 0
-12 3 -15 7 -8 5 8 13 9 22 3 12 -7 12 -12 2 -22 -6 -6 -12 -8 -12 -3 0 15
-49 -68 -50 -83 0 -7 5 -10 10 -7 6 4 8 10 6 14 -3 4 -1 13 5 21 7 12 9 10 9
-8 0 -13 4 -20 10 -17 6 3 10 1 10 -5 0 -7 -9 -14 -21 -17 -14 -4 -19 -12 -16
-24 3 -10 0 -20 -7 -23 -6 -3 -4 -4 4 -3 9 1 15 -2 15 -8 0 -5 -3 -9 -7 -8 -3
1 -12 -4 -18 -13 -11 -12 -10 -13 5 -8 13 5 16 4 11 -4 -5 -8 2 -12 19 -12 18
0 24 4 19 13 -6 9 -3 8 8 -1 9 -8 27 -12 40 -10 24 3 49 28 42 40 -3 5 0 8 5
8 6 0 11 4 11 10 0 5 -7 7 -15 4 -8 -4 -15 -12 -15 -18 0 -7 -11 -18 -25 -24
l-25 -12 25 41 c14 22 23 44 20 48 -5 9 18 33 26 28 2 -1 -1 3 -7 8 -13 12 1
59 15 51 5 -3 7 2 5 12 -3 9 -1 28 5 42 8 21 10 22 10 5 1 -25 19 -8 27 26 3
13 8 35 11 49 4 14 13 30 22 37 9 7 12 13 7 13 -5 0 -1 9 9 20 17 18 17 20 2
14 -23 -9 -21 9 3 31 18 17 20 17 14 2 -4 -10 -1 -17 6 -17 6 0 14 9 17 20 3
11 9 18 13 15 5 -3 6 4 3 15 -4 15 0 20 16 20 13 0 21 6 21 18 0 14 -2 15 -10
2 -8 -13 -10 -13 -10 0 0 8 12 24 28 36 26 22 26 23 8 37 -18 13 -18 14 0 14
11 0 22 -5 26 -11 5 -7 8 -5 8 6 0 9 5 20 12 24 7 5 9 2 4 -7 -4 -8 0 -5 8 5
9 11 16 23 16 26 0 3 10 11 23 16 12 6 17 9 10 7 -7 -1 -15 2 -18 7 -4 6 1 10
9 10 9 0 16 4 16 9 0 6 -9 8 -20 6 -19 -4 -20 -3 -3 20 10 12 20 21 22 19 2
-2 17 8 34 22 27 23 31 24 47 9 12 -11 20 -13 25 -6 3 6 0 11 -8 11 -8 0 -20
7 -27 15 -10 12 -10 15 0 15 8 0 11 3 7 6 -3 3 -19 -1 -35 -9 -17 -8 -41 -12
-55 -10 -14 3 -35 0 -47 -7 -15 -8 -20 -8 -16 -1 4 6 3 11 -2 11 -5 0 -9 7 -9
15 0 8 4 15 9 15 4 0 8 6 8 14 0 8 7 17 16 20 24 9 28 7 14 -9 -16 -20 1 -19
26 1 10 8 12 13 4 9 -8 -4 -2 5 14 18 16 14 25 30 22 36 -4 7 1 11 13 11 11 0
23 4 26 10 3 6 -1 7 -9 4 -23 -9 -20 1 14 38 19 20 33 29 38 23 4 -6 13 -10
20 -9 6 1 17 2 23 3 18 2 -1 21 -22 21 -16 0 -18 3 -7 19 8 14 16 17 24 10 8
-6 14 -5 17 6 4 8 13 12 22 9 8 -3 15 -1 15 6 0 6 4 9 9 5 5 -3 12 -1 16 5 10
16 -38 12 -81 -6 -22 -9 -52 -18 -68 -20 -24 -3 -28 -1 -23 15 7 26 -15 33
-44 14 l-24 -16 22 24 c15 15 35 24 60 25 65 3 70 4 48 15 -15 7 -12 8 13 3
19 -3 32 -1 32 5 0 16 -33 22 -70 11 -18 -5 -36 -8 -38 -5 -3 3 9 8 26 11 18
4 29 10 26 15 -3 5 -10 7 -15 3 -5 -3 -15 -1 -22 4 -7 5 -20 8 -30 7 -23 -4
-13 11 13 18 11 3 18 1 14 -4 -8 -13 10 -11 24 3 9 9 12 8 12 -6 0 -10 4 -14
12 -10 7 4 8 3 4 -4 -4 -7 -3 -12 3 -12 5 0 14 7 19 16 7 13 13 14 28 6 17
-10 17 -11 2 -12 -9 0 -20 -5 -24 -11 -4 -7 2 -9 17 -7 16 2 24 10 25 25 1 19
-3 21 -38 17 -21 -2 -36 1 -33 5 3 5 18 8 35 7 16 -1 30 1 30 6 0 4 5 8 11 8
5 0 7 -5 4 -10 -12 -19 26 -22 46 -4 17 16 22 16 29 4 8 -13 10 -13 11 0 1 8
1 20 0 26 -2 17 29 40 37 27 4 -5 14 -10 22 -10 8 0 24 -4 34 -9 14 -5 17 -4
12 4 -4 7 -1 12 9 12 9 0 13 -4 10 -10 -3 -5 -1 -10 4 -10 6 0 11 5 11 11 0 5
5 7 10 4 6 -4 9 -1 8 6 -2 7 2 14 7 14 6 1 27 6 48 13 21 6 46 8 55 5 22 -8
13 1 -17 17 -15 8 -21 8 -17 1 4 -6 2 -11 -3 -11 -6 0 -11 5 -11 10 0 13 48
32 60 25 5 -3 11 -1 14 4 3 4 28 11 56 15 46 6 49 8 35 22 -16 16 -65 12 -65
-5 0 -5 -8 -7 -19 -4 -10 3 -22 0 -25 -6 -4 -5 -13 -8 -20 -5 -8 3 -17 1 -21
-5 -3 -6 -13 -11 -21 -11 -11 0 -12 4 -3 18 8 13 20 17 42 14 22 -4 28 -2 22
8 -5 9 -4 11 4 6 20 -13 59 2 57 21 -2 10 -1 12 1 5 3 -9 13 -12 26 -8 75 19
77 19 77 1 0 -13 -3 -15 -12 -7 -8 6 -21 6 -33 1 -19 -9 -18 -9 2 -5 12 2 27
-2 34 -10 6 -8 19 -14 27 -14 12 0 11 -4 -6 -16 -12 -8 -22 -24 -22 -35 0 -12
-7 -19 -18 -19 -10 0 -27 -7 -38 -16 -10 -8 -12 -12 -4 -8 9 4 12 3 7 -2 -5
-5 -23 -15 -40 -22 -24 -9 -26 -11 -7 -8 24 5 24 4 6 -9 -11 -8 -25 -15 -32
-15 -6 0 -17 -7 -24 -15 -7 -8 -16 -13 -19 -10 -4 2 -8 -2 -8 -10 0 -8 5 -15
11 -15 6 0 -3 -14 -21 -30 -18 -17 -37 -30 -42 -30 -6 0 -15 -9 -21 -20 -6
-11 -15 -18 -19 -15 -5 3 -11 -2 -15 -10 -3 -8 -12 -15 -19 -15 -9 0 -14 -9
-13 -22 1 -13 -8 -33 -22 -45 -13 -12 -22 -25 -21 -30 3 -12 -43 -34 -59 -28
-7 3 -10 0 -7 -5 8 -14 -13 -49 -45 -77 -19 -16 -26 -30 -23 -43 4 -14 -6 -31
-31 -56 -24 -24 -35 -42 -31 -54 3 -11 -1 -20 -10 -24 -8 -3 -15 -12 -15 -20
0 -7 -14 -29 -30 -47 -45 -51 -49 -56 -44 -62 2 -2 -2 -10 -11 -17 -8 -7 -15
-19 -15 -27 0 -7 -7 -16 -15 -19 -9 -4 -13 -16 -11 -35 2 -16 -1 -29 -5 -29
-5 0 -9 -6 -9 -14 0 -8 -7 -21 -14 -29 -21 -20 -51 -75 -65 -119 -7 -21 -17
-38 -22 -38 -6 0 -9 -9 -7 -19 2 -10 -4 -27 -13 -37 -46 -52 -88 -168 -68
-188 2 -3 54 -10 114 -16 160 -16 319 -38 410 -56 132 -26 259 -56 270 -64 6
-4 21 -10 35 -13 14 -3 75 -19 135 -35 61 -17 142 -39 180 -50 39 -10 88 -27
110 -36 22 -10 49 -21 60 -26 31 -11 227 -111 235 -120 12 -12 51 -30 65 -30
8 0 15 -4 15 -10 0 -5 5 -10 10 -10 6 0 27 -11 48 -24 119 -75 210 -136 229
-155 12 -11 26 -21 30 -21 4 0 33 -23 63 -50 30 -27 60 -50 67 -50 6 0 13 -3
15 -7 2 -5 18 -21 36 -37 31 -29 32 -29 46 -10 8 10 22 42 31 69 18 54 97 259
121 315 42 94 61 131 105 201 26 41 61 104 79 138 38 76 90 152 139 206 45 48
106 127 106 136 0 3 15 24 33 45 19 21 42 55 52 74 10 19 59 81 110 138 105
118 211 209 444 379 43 32 98 72 121 90 24 17 46 29 49 26 3 -4 6 23 7 58 0
35 3 75 5 89 3 14 6 75 9 135 2 61 9 128 14 150 6 22 12 58 14 80 3 28 4 21 5
-22 1 -34 -2 -65 -8 -68 -6 -3 -10 -49 -10 -101 0 -52 -5 -137 -11 -187 -13
-108 1 -351 26 -462 11 -50 19 -164 26 -395 5 -179 13 -428 17 -555 14 -444
-13 -960 -69 -1326 -53 -351 -130 -631 -250 -910 -32 -77 -59 -148 -59 -158 0
-10 -18 -53 -40 -96 -22 -43 -40 -84 -40 -91 0 -7 -9 -29 -20 -49 -11 -19 -29
-51 -40 -70 -11 -20 -20 -44 -20 -54 0 -11 -13 -45 -30 -76 -16 -31 -30 -63
-30 -70 0 -7 -13 -39 -30 -70 -16 -31 -30 -63 -30 -71 0 -7 -9 -29 -20 -49
-11 -20 -20 -42 -20 -49 0 -8 -13 -40 -30 -71 -16 -31 -30 -63 -30 -71 0 -7
-9 -29 -20 -49 -11 -20 -20 -44 -20 -55 0 -10 -4 -22 -10 -25 -5 -3 -10 -15
-10 -25 0 -11 -9 -35 -20 -55 -11 -20 -20 -44 -20 -55 0 -10 -4 -22 -10 -25
-5 -3 -10 -17 -10 -30 0 -13 -4 -27 -10 -30 -5 -3 -10 -17 -10 -30 0 -13 -4
-27 -10 -30 -5 -3 -10 -17 -10 -30 0 -13 -4 -27 -10 -30 -5 -3 -10 -17 -10
-30 0 -13 -4 -27 -10 -30 -5 -3 -10 -17 -10 -30 0 -13 -4 -27 -10 -30 -5 -3
-10 -21 -10 -40 0 -19 -4 -37 -10 -40 -5 -3 -10 -21 -10 -40 0 -19 -4 -37 -10
-40 -5 -3 -10 -21 -10 -40 0 -19 -4 -37 -10 -40 -5 -3 -10 -26 -10 -50 0 -24
-4 -47 -10 -50 -5 -3 -10 -21 -10 -40 0 -19 -4 -37 -10 -40 -5 -3 -10 -30 -10
-60 0 -30 -4 -57 -10 -60 -5 -3 -10 -30 -10 -60 0 -30 -4 -57 -10 -60 -5 -3
-10 -43 -10 -89 0 -45 -4 -86 -9 -92 -22 -22 -40 -578 -30 -914 13 -464 86
-852 232 -1250 102 -278 196 -451 471 -870 255 -386 447 -639 629 -824 l108
-111 -37 -31 -37 -31 72 -100 c39 -55 71 -104 71 -109 0 -5 -15 -30 -34 -57
-59 -83 -80 -143 -79 -227 0 -69 5 -89 75 -265 42 -104 84 -212 93 -238 43
-116 92 -114 359 15 332 162 1073 536 1361 688 50 26 169 89 265 140 1572 829
2397 1363 2356 1524 -9 36 -521 506 -716 657 -107 83 -231 164 -276 181 -19 6
-34 15 -34 18 0 4 36 33 80 64 l79 58 -74 98 -75 99 -201 -146 c-113 -82 -204
-142 -209 -137 -18 20 -151 467 -214 719 -68 272 -103 512 -92 616 9 79 47
232 171 686 101 368 165 594 540 1914 195 683 286 1013 313 1129 71 304 86
601 38 784 -31 118 -60 173 -218 409 -632 945 -2090 2898 -2423 3246 -313 327
-1807 1500 -2478 1944 -155 103 -324 197 -355 197 -10 0 -39 -14 -64 -30z
m-543 -2914 c-4 -27 -1 -35 15 -39 16 -4 18 -2 10 13 -13 24 3 35 27 20 17
-11 17 -11 -1 -6 -16 6 -17 4 -6 -9 7 -8 18 -15 26 -15 7 0 16 -4 19 -10 7
-11 -54 -52 -70 -47 -5 2 -16 -3 -23 -12 -8 -9 -11 -10 -7 -3 3 6 -1 15 -9 18
-9 3 -13 10 -10 15 3 5 0 9 -6 9 -8 0 -10 -9 -6 -25 5 -18 3 -23 -8 -19 -8 3
-20 -4 -28 -15 -8 -12 -18 -18 -21 -14 -4 3 -7 2 -7 -4 0 -6 -16 -14 -35 -17
-19 -4 -35 -11 -35 -15 0 -5 -7 -12 -16 -15 -11 -4 -15 -2 -11 8 7 18 -30 10
-56 -12 -16 -14 -17 -14 -11 1 3 10 1 17 -5 17 -6 0 -11 -5 -11 -12 0 -6 -3
-9 -6 -5 -3 3 11 27 31 52 41 49 63 54 26 5 -25 -34 -21 -37 15 -13 19 12 22
18 12 24 -9 6 -7 9 8 9 12 0 25 10 32 25 11 23 21 29 39 23 4 -2 6 -12 5 -23
-2 -15 -1 -17 6 -6 6 7 14 11 18 9 5 -3 18 -1 29 3 19 9 19 9 -2 5 -16 -3 -20
0 -16 12 5 11 2 14 -9 10 -9 -4 -20 -2 -26 4 -8 8 -20 2 -41 -20 -34 -37 -41
-39 -41 -11 0 11 4 18 9 15 4 -3 22 10 40 29 17 19 37 35 43 35 7 0 3 -7 -8
-16 -18 -15 -18 -15 5 -8 18 5 22 3 17 -7 -4 -8 -1 -6 7 4 16 19 33 22 42 7 4
-6 -1 -7 -11 -3 -12 4 -15 3 -10 -5 4 -7 2 -12 -4 -12 -6 0 -8 -4 -5 -10 10
-15 20 -12 50 16 26 24 27 26 9 39 -17 13 -17 16 -4 25 25 16 29 12 25 -24z
m489 -637 c-8 -8 -14 -21 -14 -27 0 -6 -9 -17 -20 -25 -11 -8 -17 -16 -14 -20
3 -3 -4 -10 -15 -17 -12 -6 -19 -15 -16 -21 6 -9 -32 -71 -47 -77 -4 -2 -8
-12 -8 -21 0 -22 -68 -94 -80 -86 -5 3 -20 0 -32 -7 -13 -7 -26 -11 -30 -10
-5 1 -8 -3 -8 -8 0 -14 27 -12 34 3 3 6 3 1 0 -13 -4 -14 -11 -27 -16 -28 -4
-2 -16 -11 -25 -20 -9 -10 -19 -17 -22 -17 -3 0 -14 -5 -25 -11 -14 -8 -15
-13 -6 -19 7 -4 16 -2 22 6 6 10 7 6 2 -11 -8 -32 -24 -51 -35 -44 -5 3 -9 -6
-9 -20 0 -14 -8 -33 -19 -43 -10 -10 -21 -31 -25 -46 -4 -15 -11 -25 -16 -22
-4 3 -18 -8 -30 -25 -18 -25 -19 -30 -6 -30 9 0 16 5 16 12 0 6 3 8 7 4 4 -4
-3 -16 -17 -27 -19 -14 -22 -21 -12 -27 10 -7 10 -11 -3 -22 -8 -7 -15 -19
-15 -27 0 -7 -7 -16 -15 -19 -8 -4 -12 -10 -9 -15 3 -5 -3 -9 -12 -9 -10 0
-14 -3 -11 -6 3 -4 -3 -18 -13 -32 -11 -13 -20 -31 -20 -39 0 -8 -7 -21 -15
-29 -8 -8 -11 -22 -8 -31 4 -10 2 -14 -4 -10 -11 7 -28 -22 -18 -31 3 -3 5 1
5 8 0 7 3 10 6 7 4 -4 -8 -20 -26 -37 -25 -23 -30 -34 -22 -42 7 -7 12 -17 12
-23 0 -5 -5 -3 -10 5 -8 12 -10 8 -11 -15 -1 -16 -1 -34 0 -38 1 -5 -3 -6 -8
-3 -5 4 -18 -7 -27 -24 -22 -35 -36 -39 -30 -7 3 12 5 24 5 27 1 3 5 -2 11
-10 6 -10 9 -2 8 28 0 26 -4 39 -11 35 -6 -3 -7 -1 -3 6 4 6 12 9 17 6 5 -4 9
7 9 23 0 19 8 35 23 46 12 9 18 15 12 15 -22 -3 -35 2 -35 12 0 5 5 7 10 4 6
-3 10 -2 10 4 0 5 7 17 16 25 8 9 11 16 5 16 -6 0 -11 5 -11 11 0 18 37 59 45
51 5 -4 5 -1 1 6 -4 7 -11 10 -16 7 -5 -3 -12 0 -16 6 -4 7 -3 9 3 6 6 -4 13
0 17 8 8 21 -24 19 -39 -2 -11 -15 -12 -13 -12 13 0 16 2 24 4 18 6 -16 45 -5
61 18 14 19 38 26 26 6 -4 -6 -3 -8 4 -5 5 4 9 18 7 32 -1 17 4 29 17 36 10 5
16 14 13 19 -7 11 36 56 48 52 5 -1 6 2 3 7 -4 5 -3 11 1 14 5 2 2 2 -4 1 -7
-2 -13 1 -13 6 0 6 4 10 9 10 5 0 11 9 14 21 4 14 10 18 18 13 8 -5 11 -2 7 8
-4 8 2 20 14 27 12 7 17 18 14 28 -5 13 -4 14 9 3 13 -11 15 -8 15 16 0 20 3
25 9 16 6 -11 11 -10 25 4 12 11 14 20 7 27 -12 12 35 41 50 31 5 -3 9 0 9 5
0 6 -4 11 -10 11 -5 0 -7 7 -4 15 4 8 11 15 16 15 6 0 7 -7 4 -16 -6 -14 -4
-15 9 -4 11 9 13 15 4 20 -21 13 -5 45 24 48 30 4 38 35 12 46 -20 7 -19 22 1
30 15 6 15 4 3 -11 -13 -16 -12 -17 4 -4 9 7 17 20 17 27 0 8 7 14 15 14 8 0
14 3 13 8 -2 4 5 18 15 32 10 15 17 19 17 10 0 -8 9 -1 19 17 11 17 34 42 50
54 17 13 31 27 31 31 0 20 35 53 56 53 20 0 21 -2 8 -16z"/>
<path d="M6409 15136 c-121 -43 -580 -358 -1139 -783 -234 -177 -298 -227
-505 -388 -38 -30 -97 -76 -130 -102 -50 -39 -186 -149 -559 -453 -261 -213
-432 -371 -539 -500 -39 -47 -74 -87 -77 -90 -9 -7 -273 -338 -364 -455 -124
-162 -782 -1040 -891 -1190 -55 -76 -118 -163 -141 -194 -22 -31 -72 -99 -110
-151 -38 -52 -76 -105 -84 -117 -15 -22 -387 -544 -441 -618 -112 -156 -377
-560 -400 -612 -25 -54 -36 -90 -55 -178 -13 -60 -24 -218 -19 -270 3 -33 8
-85 11 -115 19 -217 53 -360 230 -990 42 -146 79 -278 84 -295 5 -16 18 -61
29 -100 11 -38 29 -101 41 -140 25 -88 236 -828 260 -915 10 -36 30 -105 43
-155 46 -163 138 -489 153 -540 27 -93 155 -569 199 -740 41 -160 43 -177 40
-285 -5 -195 -60 -455 -191 -910 -21 -70 -105 -333 -110 -342 -3 -4 -57 32
-122 78 -64 47 -152 111 -195 142 -43 31 -82 58 -87 60 -9 3 -150 -182 -150
-197 0 -4 34 -32 75 -62 41 -29 75 -55 75 -56 0 -1 -28 -17 -62 -34 -166 -83
-451 -320 -897 -747 -69 -65 -73 -73 -67 -102 7 -39 62 -110 136 -175 135
-120 466 -342 800 -538 259 -152 442 -257 447 -257 3 0 17 -8 31 -18 15 -11
56 -35 92 -54 36 -19 106 -57 155 -85 50 -27 126 -69 170 -93 44 -23 103 -55
130 -70 482 -266 1710 -895 2102 -1079 72 -33 151 -64 175 -67 41 -6 46 -4 74
28 18 21 46 78 69 139 20 57 60 158 88 224 47 110 51 127 51 200 1 93 -15 140
-76 227 -22 31 -38 63 -35 70 3 7 35 53 71 103 36 49 66 94 66 100 0 5 -17 21
-36 33 l-37 24 86 86 c175 179 320 360 534 672 422 615 572 914 694 1379 46
174 76 326 85 421 8 80 17 96 12 19 -3 -49 -1 -55 17 -57 16 -1 17 1 5 8 -22
14 -5 23 19 10 12 -6 21 -7 22 -3 1 4 4 -3 8 -17 6 -21 14 -26 49 -28 35 -3
46 -9 60 -31 16 -27 22 -31 40 -31 4 0 12 -10 17 -22 7 -17 20 -24 45 -26 21
-2 44 -13 58 -28 13 -13 31 -25 40 -26 9 -1 24 -2 32 -4 8 -1 20 -2 27 -3 6
-1 13 -11 15 -24 2 -18 12 -24 52 -31 28 -6 59 -20 72 -33 13 -13 28 -23 35
-23 6 0 9 -6 6 -14 -7 -19 18 -40 38 -32 8 3 15 1 15 -4 0 -5 16 -6 34 -3 37
6 93 -4 82 -14 -14 -15 29 -43 66 -43 22 0 38 -5 38 -11 0 -23 36 -38 87 -39
61 0 83 -7 83 -26 0 -26 39 -35 142 -32 76 2 102 6 100 16 -3 16 14 15 90 -4
77 -20 87 -27 28 -20 -40 5 -37 3 20 -13 85 -25 56 -26 -35 -2 -41 11 -60 20
-45 21 23 1 23 2 5 10 -25 11 -54 13 -39 2 6 -4 10 -15 8 -25 -4 -30 33 -40
130 -35 58 4 109 1 141 -7 28 -7 40 -13 28 -14 -13 0 -23 -5 -23 -11 0 -6 65
-10 175 -10 96 0 175 3 175 8 0 4 156 4 347 -1 192 -4 405 -6 476 -5 121 3
127 2 128 -17 1 -11 4 -4 8 15 6 34 7 35 105 62 54 15 112 33 130 41 17 8 48
20 69 27 21 7 36 14 33 17 -3 3 -19 0 -37 -6 -18 -6 -34 -9 -36 -7 -3 2 13 9
34 16 21 7 67 23 102 37 42 16 76 23 96 20 17 -3 38 -1 46 5 10 7 7 8 -11 4
-14 -3 -5 4 20 16 25 11 64 22 87 22 22 1 39 4 37 8 -3 4 8 7 23 7 38 -1 98
15 128 35 13 9 30 16 37 16 12 0 120 52 198 96 58 33 146 124 90 94 -34 -18
-22 -4 20 24 22 14 40 22 40 18 0 -5 -10 -13 -22 -19 -19 -8 -20 -10 -4 -16
10 -4 15 -3 11 3 -6 10 9 15 30 10 6 -1 7 1 3 5 -9 9 24 42 38 38 6 -2 17 3
24 12 7 8 9 15 6 15 -4 0 9 14 27 30 19 17 39 30 43 30 5 0 1 -5 -8 -11 -10
-5 -18 -14 -18 -20 0 -5 21 4 46 21 25 18 48 29 51 26 3 -3 18 4 34 15 16 11
51 27 78 35 63 18 103 52 129 107 27 57 73 96 150 127 55 22 62 28 62 52 0 22
-4 26 -20 23 -12 -2 -35 -16 -51 -30 -17 -14 -35 -25 -39 -25 -15 0 -80 -61
-75 -70 6 -9 -12 -23 -33 -26 -19 -3 -43 -25 -37 -34 6 -10 -33 -45 -42 -37
-4 4 -16 -1 -28 -10 -11 -10 -7 -4 10 12 16 17 50 47 75 67 50 41 50 59 -1 29
-19 -12 -41 -24 -49 -28 -8 -3 -26 -15 -39 -25 -53 -41 -83 -5 -41 49 38 49
27 52 -87 22 -60 -15 -151 -42 -203 -59 -73 -24 -122 -33 -210 -39 -63 -4
-121 -11 -129 -16 -8 -4 -115 -10 -238 -11 -170 -2 -237 1 -280 12 -30 8 -101
19 -157 25 -55 6 -123 17 -149 26 -26 8 -54 12 -62 9 -8 -3 -15 -1 -15 4 0 5
-26 12 -57 15 -32 4 -85 18 -118 32 -33 14 -80 31 -105 38 -77 23 -163 46
-203 56 -45 11 -160 58 -167 68 -9 13 -134 61 -205 79 -47 12 -96 35 -145 68
-41 27 -92 58 -112 68 -21 11 -38 22 -38 27 0 4 -21 21 -47 38 -27 17 -64 47
-83 66 -19 19 -41 35 -50 35 -22 0 -40 -20 -40 -46 0 -16 -8 -23 -28 -27 -15
-3 -40 -15 -55 -27 l-27 -21 0 -148 0 -147 -41 -39 c-22 -22 -47 -52 -55 -67
-8 -16 -19 -28 -25 -28 -6 0 -25 -11 -41 -25 -32 -27 -62 -28 -118 -1 -19 9
-40 8 -90 -2 -89 -18 -103 -32 -94 -98 5 -44 3 -58 -15 -82 -11 -16 -35 -35
-53 -42 -43 -17 -88 -59 -88 -82 0 -15 -8 -18 -42 -18 -24 0 -50 4 -58 9 -21
14 -33 1 -17 -17 8 -10 18 -27 22 -40 9 -30 -14 -38 -73 -24 -25 5 -51 8 -59
5 -19 -7 -16 -37 7 -77 10 -20 15 -38 10 -41 -5 -3 -52 17 -105 45 -54 27
-101 47 -106 44 -5 -3 -9 -1 -9 4 0 11 -139 102 -155 102 -7 0 -18 7 -25 15
-8 10 -21 13 -33 9 -13 -4 -17 -2 -13 5 4 6 -3 15 -17 20 -14 6 -28 15 -33 22
-4 7 -3 10 4 5 6 -3 13 -2 16 3 10 15 -15 59 -35 64 -13 4 -19 14 -19 33 0 15
-6 35 -14 43 -7 9 -18 30 -23 46 -9 29 -10 27 -17 -28 -8 -65 -5 -73 58 -119
42 -30 42 -39 1 -12 -14 9 -25 13 -25 10 0 -4 -9 -2 -20 4 -11 6 -18 15 -15
21 4 5 -1 12 -9 15 -18 7 -22 59 -6 69 6 3 10 48 10 100 0 52 4 97 10 100 6 4
10 153 10 415 0 262 -4 411 -10 415 -6 3 -10 52 -10 110 0 58 -4 107 -10 110
-5 3 -10 39 -10 80 0 41 -4 77 -10 80 -5 3 -10 35 -10 70 0 35 -4 67 -10 70
-5 3 -10 26 -10 50 0 24 -4 47 -10 50 -5 3 -10 30 -10 60 0 30 -4 57 -10 60
-5 3 -10 21 -10 40 0 19 -4 37 -10 40 -5 3 -10 21 -10 40 0 19 -4 37 -10 40
-5 3 -10 21 -10 40 0 19 -4 37 -10 40 -5 3 -10 21 -10 40 0 19 -4 37 -10 40
-5 3 -10 17 -10 30 0 13 -4 27 -10 30 -5 3 -10 21 -10 40 0 19 -4 37 -10 40
-5 3 -10 17 -10 30 0 13 -4 27 -10 30 -5 3 -10 15 -10 25 0 11 -9 35 -20 55
-11 20 -20 44 -20 55 0 10 -4 22 -10 25 -5 3 -10 17 -10 30 0 13 -4 27 -10 30
-5 3 -10 15 -10 25 0 11 -9 35 -20 55 -11 20 -20 42 -20 50 0 8 -9 30 -20 50
-11 20 -20 42 -20 49 0 8 -13 40 -30 71 -16 31 -30 63 -30 71 0 7 -9 29 -20
49 -11 20 -20 42 -20 49 0 8 -13 40 -30 71 -16 31 -30 63 -30 70 0 7 -13 39
-30 70 -16 31 -30 63 -30 69 0 7 -22 57 -50 111 -27 54 -50 104 -50 111 0 6
-13 38 -30 69 -16 31 -30 63 -30 70 0 7 -13 39 -30 70 -16 31 -30 63 -30 70 0
7 -13 39 -30 70 -16 31 -30 65 -30 75 0 11 -4 22 -10 25 -5 3 -10 17 -10 30 0
13 -4 27 -10 30 -5 3 -10 21 -10 40 0 19 -4 37 -10 40 -6 3 -10 17 -10 30 0
13 -4 27 -10 30 -5 3 -10 21 -10 40 0 19 -4 37 -10 40 -5 3 -10 21 -10 39 0
17 -4 36 -9 42 -5 5 -11 43 -13 84 -3 41 -3 65 -1 52 4 -23 5 -23 19 -5 14 17
14 17 5 -4 -14 -28 -14 -74 0 -93 7 -11 9 -4 4 26 -7 44 8 77 71 160 17 23 42
64 54 90 31 64 119 195 142 212 10 7 18 19 18 26 0 6 20 40 45 74 25 34 41 62
37 62 -5 0 -34 -36 -66 -80 -31 -44 -59 -80 -62 -80 -5 0 29 50 96 139 14 19
24 36 23 38 -9 11 -1 14 11 4 21 -17 106 86 95 115 -6 17 0 28 28 55 20 19 33
28 29 22 -11 -21 3 -15 27 10 12 13 16 16 10 7 -7 -9 -13 -20 -13 -24 0 -4 6
-1 13 7 6 7 46 49 87 92 41 43 66 72 55 64 -19 -13 -19 -13 -6 4 7 9 19 16 25
15 10 -3 206 159 206 170 0 2 -8 -2 -17 -9 -15 -11 -14 -10 1 9 20 23 32 30
21 12 -16 -26 20 -5 65 38 28 27 53 46 57 43 3 -3 3 0 -1 7 -4 6 -2 13 3 13 6
1 17 2 24 3 6 1 11 8 9 15 -2 8 3 11 12 8 19 -8 52 28 35 39 -8 4 -10 3 -5 -4
4 -7 2 -10 -6 -9 -7 2 -10 2 -5 0 4 -3 4 -9 1 -15 -4 -7 -9 -6 -14 1 -4 8 -15
5 -33 -9 -15 -12 -27 -19 -27 -16 0 3 16 17 35 31 30 23 48 31 78 34 5 1 6 5
3 10 -7 11 62 56 71 47 3 -3 21 4 40 15 40 25 45 19 6 -7 -16 -10 -37 -17 -48
-16 -16 1 -17 -1 -5 -9 11 -8 9 -9 -10 -4 -17 4 -21 3 -11 -3 9 -7 10 -12 2
-16 -6 -4 -11 -3 -11 3 0 6 -8 7 -17 4 -11 -4 -13 -8 -5 -11 7 -2 9 -9 5 -15
-4 -7 4 -5 17 4 14 9 49 31 78 49 41 25 50 35 42 45 -8 10 -8 15 1 21 7 4 9 3
6 -3 -4 -6 0 -14 9 -17 9 -4 13 -2 8 5 -4 7 -1 10 7 7 20 -7 51 11 43 24 -5 7
-2 9 9 5 9 -3 16 -2 14 3 -1 6 14 20 33 32 27 18 32 19 21 5 -13 -17 -13 -17
12 -6 15 7 27 16 27 20 0 14 60 40 72 33 7 -5 8 -3 3 6 -6 10 -4 12 9 7 10 -4
15 -3 11 3 -4 6 4 9 17 7 12 -1 23 3 23 9 0 13 35 49 35 36 0 -8 17 -9 53 -3
5 0 6 5 3 10 -3 5 28 23 69 41 78 34 98 55 63 65 -25 8 -50 -12 -30 -24 20
-12 -32 -28 -98 -30 -45 -1 -59 -6 -75 -26 -13 -16 -33 -25 -59 -27 -26 -2
-43 -9 -50 -23 -15 -28 -27 -35 -58 -35 -37 0 -58 -10 -58 -26 0 -13 -19 -20
-69 -26 -13 -2 -29 -12 -35 -23 -16 -29 -27 -35 -61 -33 -36 2 -55 -7 -55 -28
0 -8 -11 -20 -25 -26 -14 -6 -25 -17 -25 -24 0 -13 -20 -21 -70 -26 -16 -2
-30 -13 -38 -31 -8 -16 -21 -31 -30 -34 -10 -4 -37 -28 -62 -54 -37 -39 -53
-49 -84 -51 -29 -2 -40 -8 -47 -25 -5 -13 -20 -28 -35 -33 -14 -6 -28 -19 -31
-29 -3 -11 -13 -21 -24 -24 -10 -3 -23 -17 -29 -31 -5 -15 -20 -28 -35 -32
-17 -4 -24 -11 -21 -20 3 -8 -7 -20 -24 -29 -17 -9 -30 -22 -30 -30 0 -12 -31
-36 -50 -39 -3 -1 -4 -6 -2 -13 1 -7 -11 -19 -28 -28 -16 -8 -30 -22 -30 -29
0 -8 -11 -17 -24 -20 -15 -4 -26 -15 -28 -28 -2 -12 -12 -27 -23 -33 -11 -5
-30 -19 -42 -30 -12 -11 -29 -26 -37 -33 -9 -7 -16 -27 -16 -44 0 -25 -10 -42
-50 -79 -27 -26 -50 -50 -50 -54 0 -8 -20 -27 -45 -41 -13 -7 -21 -24 -23 -46
-2 -24 -12 -44 -33 -62 -16 -14 -29 -30 -29 -34 0 -4 -10 -12 -22 -17 -17 -7
-24 -20 -26 -47 -2 -26 -13 -47 -34 -68 -22 -23 -29 -36 -24 -54 4 -15 -1 -31
-13 -45 l-18 -21 -7 37 c-78 465 -101 797 -92 1349 8 562 23 1002 36 1059 26
123 41 160 73 183 18 12 46 34 62 49 17 16 57 51 90 78 104 87 117 98 225 195
127 115 227 215 339 341 46 52 168 182 270 289 497 522 656 697 744 817 48 66
72 167 62 265 l-6 67 54 83 c113 175 185 312 208 400 17 63 0 169 -46 292
l-35 94 25 56 c62 141 110 295 140 451 29 148 6 258 -70 343 -82 91 -145 101
-393 62 l-153 -24 -56 63 c-71 80 -139 131 -172 131 -14 -1 -42 -7 -62 -14z"/>
<path d="M6593 9473 c2 -38 -2 -66 -10 -79 -9 -15 -13 -45 -11 -90 4 -86 22
-91 58 -17 14 28 33 60 43 71 9 10 17 31 17 46 0 15 12 43 26 62 31 39 27 72
-5 52 -16 -10 -27 -10 -54 0 -63 23 -68 19 -64 -45z"/>
<path d="M6214 8270 c-27 -22 -58 -40 -69 -40 -23 -1 -55 -22 -55 -37 0 -6 -7
-16 -15 -23 -8 -7 -15 -23 -15 -36 0 -48 -34 -84 -126 -130 -48 -24 -93 -44
-99 -44 -6 0 -37 -27 -70 -60 l-60 -61 -1 -132 c0 -73 -4 -142 -8 -153 -5 -13
-20 -24 -38 -28 -53 -11 -56 -9 -61 47 -3 28 -8 66 -12 83 -5 24 0 43 19 80
14 27 26 64 26 81 0 29 -3 33 -25 33 -20 0 -25 5 -25 25 0 36 -74 105 -112
105 -9 0 -9 -3 0 -12 7 -7 12 -22 12 -35 0 -18 -6 -23 -26 -23 -23 0 -25 3
-20 25 5 20 3 25 -13 25 -11 0 -24 7 -29 16 -7 12 -17 14 -45 9 -20 -4 -37
-11 -37 -16 0 -23 40 -118 268 -631 16 -36 33 -60 46 -64 26 -8 36 -22 36 -50
0 -12 16 -36 35 -55 26 -26 35 -42 35 -68 0 -28 -3 -33 -19 -28 -22 5 -22 6
17 -83 17 -41 20 -43 26 -22 4 12 12 22 17 22 5 0 9 9 9 19 0 33 28 31 75 -4
25 -19 52 -35 59 -35 8 0 16 -10 18 -22 2 -19 8 -22 31 -20 30 4 35 -15 17
-62 -11 -31 -38 -33 -71 -8 -34 27 -55 32 -68 19 -10 -9 -18 -6 -36 16 -21 24
-45 36 -45 22 0 -3 24 -63 53 -133 30 -70 82 -206 117 -302 35 -96 65 -177 67
-179 2 -2 45 -7 95 -10 90 -6 93 -7 90 -30 -2 -24 4 -25 56 -10 8 2 19 -4 25
-13 9 -13 7 -21 -7 -37 -26 -28 -9 -66 50 -116 46 -38 84 -106 84 -150 0 -18
7 -24 38 -30 20 -4 43 -12 51 -18 17 -14 96 -36 132 -37 34 0 96 -49 104 -81
4 -17 17 -29 40 -38 41 -14 50 -29 59 -93 4 -29 18 -61 37 -84 23 -29 29 -47
29 -83 0 -55 12 -71 56 -71 22 0 33 -5 36 -18 4 -15 18 -20 63 -25 32 -3 62
-12 66 -19 4 -7 11 -9 16 -5 4 5 -20 34 -55 66 -34 31 -62 60 -62 65 0 4 -11
22 -24 39 -13 18 -27 43 -31 57 -4 14 -28 49 -54 79 -25 29 -55 64 -66 78 -11
14 -32 39 -47 56 -16 16 -28 33 -28 38 0 4 -16 26 -35 49 -19 23 -35 50 -35
60 0 10 -13 33 -29 51 -17 18 -35 45 -42 61 -6 15 -15 28 -19 28 -5 0 -11 13
-15 30 -4 16 -11 32 -16 35 -5 4 -9 15 -9 26 0 10 -4 19 -9 19 -5 0 -20 21
-33 48 -14 26 -34 63 -46 82 -12 19 -29 58 -38 85 -9 28 -20 55 -24 60 -4 6
-19 46 -34 89 -15 44 -30 84 -35 90 -5 6 -14 44 -20 85 -5 40 -15 79 -20 84
-6 6 -11 22 -11 36 0 30 -15 117 -40 231 -11 47 -22 112 -25 145 -3 33 -13
107 -22 165 -12 84 -14 155 -10 360 4 140 11 278 16 305 5 28 12 75 16 104 4
30 13 61 21 68 8 8 16 26 20 41 11 54 12 62 9 62 -1 0 -25 -18 -51 -40z"/>
</g>
</svg>
